<?xml version="1.0" standalone="no"?>
<!DOCTYPE svg PUBLIC "-//W3C//DTD SVG 20010904//EN"
 "http://www.w3.org/TR/2001/REC-SVG-20010904/DTD/svg10.dtd">
<svg version="1.0" xmlns="http://www.w3.org/2000/svg"
 width="512.000000pt" height="512.000000pt" viewBox="0 0 512.000000 512.000000"
 preserveAspectRatio="xMidYMid meet">

<g transform="translate(0.000000,512.000000) scale(0.100000,-0.100000)"
fill="#000000" stroke="none">
<path d="M3060 5105 c-308 -62 -549 -273 -651 -569 -20 -58 -32 -121 -41 -209
l-12 -127 -432 0 c-334 0 -450 -3 -515 -15 -451 -79 -803 -441 -870 -894 -17
-122 -7 -303 26 -420 14 -51 28 -97 31 -102 7 -12 3921 -12 3928 0 3 5 17 51
31 102 33 117 43 298 26 420 -67 453 -419 815 -870 894 -65 12 -181 15 -517
15 l-434 0 0 69 c0 173 96 328 253 406 37 19 89 37 115 40 103 13 92 -11 92
210 l0 195 -47 -1 c-27 0 -77 -7 -113 -14z"/>
<path d="M790 2113 c0 -271 8 -378 40 -531 115 -549 512 -1022 1131 -1345 155
-82 275 -132 457 -193 l142 -48 143 48 c777 261 1337 754 1537 1353 70 210 90
368 90 716 l0 257 -1770 0 -1770 0 0 -257z"/>
</g>
</svg>
